<svg xmlns="http://www.w3.org/2000/svg" viewBox="-86.95652173913044 -86.95652173913044 173.91304347826087 173.91304347826087"><rect x="-86.95652173913044" y="-86.95652173913044" width="173.91304347826087" height="173.91304347826087" rx="32.608695652173914" fill="#FFFFFF"/><g><rect x="-15" y="-66" width="30" height="24" rx="6" fill="#E8437B" stroke="#14161A" stroke-width="5" stroke-linecap="round" stroke-linejoin="round"/><rect x="-17" y="-72" width="34" height="9" rx="4.5" fill="#E8437B" stroke="#14161A" stroke-width="5" stroke-linecap="round" stroke-linejoin="round"/><rect x="-15" y="-66" width="30" height="24" rx="6" fill="#2BB3C0" stroke="#14161A" stroke-width="5" stroke-linecap="round" stroke-linejoin="round" transform="rotate(60)"/><rect x="-17" y="-72" width="34" height="9" rx="4.5" fill="#2BB3C0" stroke="#14161A" stroke-width="5" stroke-linecap="round" stroke-linejoin="round" transform="rotate(60)"/><rect x="-15" y="-66" width="30" height="24" rx="6" fill="#F6B523" stroke="#14161A" stroke-width="5" stroke-linecap="round" stroke-linejoin="round" transform="rotate(120)"/><rect x="-17" y="-72" width="34" height="9" rx="4.5" fill="#F6B523" stroke="#14161A" stroke-width="5" stroke-linecap="round" stroke-linejoin="round" transform="rotate(120)"/><rect x="-15" y="-66" width="30" height="24" rx="6" fill="#F07D2E" stroke="#14161A" stroke-width="5" stroke-linecap="round" stroke-linejoin="round" transform="rotate(180)"/><rect x="-17" y="-72" width="34" height="9" rx="4.5" fill="#F07D2E" stroke="#14161A" stroke-width="5" stroke-linecap="round" stroke-linejoin="round" transform="rotate(180)"/><rect x="-15" y="-66" width="30" height="24" rx="6" fill="#2BB3C0" stroke="#14161A" stroke-width="5" stroke-linecap="round" stroke-linejoin="round" transform="rotate(240)"/><rect x="-17" y="-72" width="34" height="9" rx="4.5" fill="#2BB3C0" stroke="#14161A" stroke-width="5" stroke-linecap="round" stroke-linejoin="round" transform="rotate(240)"/><rect x="-15" y="-66" width="30" height="24" rx="6" fill="#F6B523" stroke="#14161A" stroke-width="5" stroke-linecap="round" stroke-linejoin="round" transform="rotate(300)"/><rect x="-17" y="-72" width="34" height="9" rx="4.5" fill="#F6B523" stroke="#14161A" stroke-width="5" stroke-linecap="round" stroke-linejoin="round" transform="rotate(300)"/><circle cx="0" cy="0" r="40" fill="#FFFFFF" stroke="#14161A" stroke-width="5" stroke-linecap="round" stroke-linejoin="round"/><circle cx="0" cy="-27" r="7" fill="none" stroke="#14161A" stroke-width="3.5" stroke-linecap="round" stroke-linejoin="round"/><circle cx="23.38" cy="-13.5" r="7" fill="none" stroke="#14161A" stroke-width="3.5" stroke-linecap="round" stroke-linejoin="round"/><circle cx="23.38" cy="13.5" r="7" fill="none" stroke="#14161A" stroke-width="3.5" stroke-linecap="round" stroke-linejoin="round"/><circle cx="0" cy="27" r="7" fill="none" stroke="#14161A" stroke-width="3.5" stroke-linecap="round" stroke-linejoin="round"/><circle cx="-23.38" cy="13.5" r="7" fill="none" stroke="#14161A" stroke-width="3.5" stroke-linecap="round" stroke-linejoin="round"/><circle cx="-23.38" cy="-13.5" r="7" fill="none" stroke="#14161A" stroke-width="3.5" stroke-linecap="round" stroke-linejoin="round"/><circle cx="0" cy="0" r="9" fill="#E8437B" stroke="#14161A" stroke-width="5" stroke-linecap="round" stroke-linejoin="round"/></g></svg>
